<?xml version="1.0" standalone="no"?>
<!DOCTYPE svg PUBLIC "-//W3C//DTD SVG 20010904//EN"
 "http://www.w3.org/TR/2001/REC-SVG-20010904/DTD/svg10.dtd">
<svg version="1.0" xmlns="http://www.w3.org/2000/svg"
 width="665.000000pt" height="375.000000pt" viewBox="0 0 665.000000 375.000000"
 preserveAspectRatio="xMidYMid meet">

<g transform="translate(0.000000,375.000000) scale(0.100000,-0.100000)"
fill="rgba(255, 255, 255, .9)" stroke="none">
<path d="M3270 3693 c-329 -22 -662 -94 -940 -202 -113 -44 -416 -189 -409
-196 3 -2 54 12 114 31 197 63 550 162 636 179 117 23 338 31 452 15 311 -42
518 -177 592 -385 57 -161 11 -425 -116 -664 -178 -334 -508 -626 -1047 -926
-57 -31 -102 -58 -100 -60 2 -2 57 -17 122 -34 65 -17 121 -32 123 -35 2 -2
-7 -30 -20 -62 -85 -202 -107 -258 -103 -262 3 -2 79 34 169 81 358 186 637
380 871 607 327 317 514 610 603 944 25 91 27 118 28 276 0 146 -3 184 -19
230 -80 235 -217 355 -481 423 -160 42 -293 53 -475 40z"/>
<path d="M1498 2263 l-3 -837 -60 -13 c-132 -27 -328 -13 -416 31 l-32 16 19
-21 c29 -32 127 -78 212 -100 94 -24 314 -26 447 -4 186 30 448 107 628 183
l68 29 -95 13 -95 12 -31 -26 c-42 -35 -76 -42 -124 -25 -53 18 -86 67 -86
127 0 38 5 50 39 83 33 33 45 39 82 39 65 0 115 -37 134 -97 0 0 52 -9 115
-18 99 -14 118 -19 136 -41 l20 -25 47 26 c26 15 50 31 53 36 5 8 -50 88 -95
141 -3 3 -60 16 -126 27 -66 12 -129 24 -140 26 -11 3 -49 45 -85 95 -43 60
-72 90 -85 90 -43 1 -101 37 -118 73 -21 43 -21 67 -3 111 28 66 110 97 178
65 53 -24 86 -117 59 -168 -7 -13 4 -35 50 -98 66 -90 55 -85 212 -104 l99
-12 61 -75 c34 -42 71 -86 82 -100 l20 -24 40 32 c22 18 40 38 40 45 0 7 -38
67 -85 133 -77 110 -87 121 -111 116 -56 -11 -134 44 -145 103 -8 44 1 75 32
112 49 59 133 59 190 0 26 -27 29 -37 29 -92 l0 -62 92 -122 c51 -67 97 -124
102 -127 11 -7 81 50 81 65 0 6 -29 48 -65 96 -36 47 -65 93 -65 102 0 9 7 77
16 151 l17 136 -48 64 c-45 62 -49 65 -89 65 -78 1 -141 67 -132 138 8 72 57
118 124 119 82 1 138 -61 130 -143 -4 -42 -2 -48 59 -121 72 -88 70 -79 48
-267 -8 -68 -12 -128 -8 -135 11 -19 115 -146 119 -146 2 0 22 16 44 36 l39
36 -25 38 -26 39 17 134 16 135 -26 38 c-14 20 -28 48 -31 60 -14 54 42 135
103 150 35 9 95 -11 123 -41 17 -18 25 -40 28 -80 5 -55 4 -56 -41 -99 l-45
-43 -12 -122 c-7 -67 -11 -124 -8 -126 9 -9 128 106 192 187 76 95 157 252
187 363 24 90 36 266 24 369 l-7 66 -1044 0 -1044 0 -2 -837z"/>
<path d="M4338 2702 c-52 -268 -203 -567 -416 -823 -154 -186 -404 -390 -710
-581 -500 -312 -955 -462 -1535 -509 -182 -14 -177 -4 -49 -115 135 -116 -13
-104 1337 -104 l1175 0 0 649 0 648 55 116 c112 237 176 481 174 658 -2 149
-11 166 -31 61z"/>
<path d="M2661 2666 c-16 -19 -6 -52 19 -59 28 -7 53 15 48 44 -4 29 -47 39
-67 15z"/>
<path d="M950 2607 c-44 -14 -115 -86 -130 -133 -7 -20 -10 -64 -8 -97 13
-191 245 -276 378 -138 89 91 93 213 12 303 -64 71 -157 95 -252 65z"/>
<path d="M3148 2520 c-19 -15 -21 -22 -12 -37 7 -11 23 -18 40 -18 24 0 30 5
32 27 5 39 -28 54 -60 28z"/>
<path d="M1991 2186 c-16 -19 -11 -46 12 -60 25 -16 52 4 52 40 0 24 -5 30
-26 32 -14 2 -31 -4 -38 -12z"/>
<path d="M2502 2188 c-17 -17 -15 -53 3 -68 20 -17 62 -5 70 21 13 40 -44 76
-73 47z"/>
<path d="M762 1880 c-27 -137 -30 -321 -7 -429 69 -328 335 -534 720 -557 173
-11 404 33 623 117 153 59 176 65 205 52 14 -6 31 -25 38 -42 8 -17 16 -31 19
-31 8 0 113 310 107 316 -4 4 -292 84 -304 84 -1 0 1 -16 4 -35 l6 -35 -104
-49 c-214 -100 -347 -134 -534 -135 -153 0 -219 15 -340 77 -60 31 -101 63
-167 129 -77 77 -94 100 -142 200 -64 134 -87 217 -95 353 l-6 100 -23 -115z"/>
<path d="M2042 1683 c-41 -16 -32 -83 11 -83 46 0 66 59 28 80 -11 5 -21 10
-23 9 -2 0 -9 -3 -16 -6z"/>
<path d="M4333 1299 c-93 -27 -156 -168 -122 -270 18 -51 55 -97 102 -122 41
-21 54 -22 390 -27 l349 -5 19 -24 c24 -30 24 -72 0 -102 l-19 -24 -405 -5
c-442 -5 -437 -5 -437 -65 0 -66 -10 -65 454 -65 390 0 419 1 454 19 74 38
112 104 112 193 -1 104 -65 187 -160 207 -31 7 -173 11 -361 11 l-310 0 -24
25 c-28 27 -33 71 -11 101 14 18 33 19 421 24 l407 5 19 24 c25 30 24 66 -1
91 -19 19 -33 20 -432 19 -227 0 -428 -5 -445 -10z"/>
<path d="M5380 1283 c-16 -20 -20 -36 -16 -63 3 -19 20 -147 37 -285 35 -292
41 -320 74 -341 23 -15 27 -15 60 2 19 11 102 74 185 142 102 84 154 120 163
115 7 -4 75 -60 151 -123 75 -63 153 -123 172 -134 43 -23 78 -15 93 21 11 27
65 431 77 583 6 73 5 78 -17 94 -45 31 -103 15 -113 -31 -3 -16 -20 -129 -36
-253 -17 -123 -32 -226 -34 -227 -2 -2 -57 46 -124 105 -66 60 -134 114 -150
121 -44 18 -77 -1 -212 -124 -115 -105 -115 -105 -122 -78 -5 16 -22 127 -39
248 -21 151 -36 225 -46 238 -25 27 -78 22 -103 -10z"/>
<path d="M295 465 c-35 -34 -35 -112 -2 -151 20 -23 34 -28 92 -33 78 -7 97
-22 77 -65 -11 -25 -15 -26 -102 -26 l-90 0 0 -30 0 -30 104 0 c96 0 107 2
133 24 24 21 27 31 28 85 0 84 -19 103 -117 110 l-73 6 0 35 0 35 88 3 87 3 0
29 0 30 -100 0 c-94 0 -103 -2 -125 -25z"/>
<path d="M1760 483 c0 -5 9 -78 21 -163 24 -179 34 -196 102 -187 21 3 41 7
43 10 3 2 11 55 20 118 8 62 16 114 18 116 5 6 14 -51 22 -140 4 -47 12 -84
21 -93 16 -15 80 -19 101 -5 9 5 21 60 32 147 11 76 21 154 24 172 5 31 3 32
-29 32 -38 0 -33 17 -56 -183 -6 -54 -15 -95 -19 -90 -4 4 -15 63 -24 131 -8
68 -18 128 -21 133 -9 14 -91 11 -102 -3 -8 -10 -33 -205 -33 -256 0 -7 -4
-12 -8 -12 -4 0 -14 46 -21 103 -23 188 -19 177 -57 177 -19 0 -34 -3 -34 -7z"/>
<path d="M3420 460 c0 -29 1 -30 50 -30 l50 0 0 -150 0 -150 30 0 30 0 0 150
0 150 50 0 c49 0 50 1 50 30 l0 30 -130 0 -130 0 0 -30z"/>
<path d="M4220 310 l0 -180 25 0 c25 0 25 1 25 89 0 104 12 127 63 117 52 -11
57 -21 57 -117 l0 -89 30 0 30 0 0 104 c0 136 -9 149 -107 156 l-68 5 -3 48
c-3 42 -5 47 -28 47 l-24 0 0 -180z"/>
<path d="M5070 310 l0 -180 25 0 25 0 0 180 0 180 -25 0 -25 0 0 -180z"/>
<path d="M5750 465 c0 -21 5 -25 30 -25 25 0 30 4 30 25 0 21 -5 25 -30 25
-25 0 -30 -4 -30 -25z"/>
<path d="M1470 435 c0 -28 -5 -38 -20 -42 -13 -3 -20 -14 -20 -28 0 -14 7 -25
20 -28 18 -5 20 -14 20 -94 0 -56 4 -93 12 -101 7 -7 31 -12 55 -12 41 0 43 1
43 30 0 25 -4 30 -25 30 -24 0 -25 2 -25 75 0 73 1 75 25 75 20 0 25 5 25 25
0 20 -5 25 -24 25 -21 0 -25 5 -28 38 -3 32 -7 37 -30 40 -26 3 -28 1 -28 -33z"/>
<path d="M587 383 c-4 -3 -7 -62 -7 -130 l0 -123 30 0 30 0 0 105 0 105 38 0
c56 0 62 -11 62 -117 0 -93 0 -93 25 -93 25 0 25 0 25 93 0 103 7 117 55 117
48 0 55 -14 55 -117 0 -93 0 -93 25 -93 l25 0 0 105 c0 99 -2 107 -25 130 -19
20 -34 25 -78 25 -29 0 -58 -5 -65 -12 -9 -9 -15 -9 -24 0 -13 13 -159 17
-171 5z"/>
<path d="M1010 365 c0 -23 3 -24 78 -27 69 -3 77 -5 77 -23 0 -18 -8 -21 -67
-25 -52 -4 -71 -10 -82 -25 -20 -26 -20 -85 0 -113 14 -20 23 -22 115 -22
l101 0 -4 109 c-4 146 -9 151 -130 151 -87 0 -88 0 -88 -25z m160 -155 c0 -18
-7 -20 -54 -20 -30 0 -58 5 -61 10 -12 20 7 30 61 30 47 0 54 -2 54 -20z"/>
<path d="M1290 370 c-18 -18 -20 -33 -20 -130 l0 -110 35 0 34 0 3 103 3 102
33 3 c26 3 32 7 32 28 0 22 -4 24 -50 24 -37 0 -55 -5 -70 -20z"/>
<path d="M2200 365 c0 -23 3 -24 78 -27 69 -3 77 -5 77 -23 0 -18 -8 -21 -67
-25 -37 -3 -72 -10 -78 -16 -21 -21 -24 -91 -6 -119 16 -24 21 -25 117 -25
l101 0 -4 109 c-4 146 -9 151 -130 151 -87 0 -88 0 -88 -25z m160 -155 c0 -18
-7 -20 -54 -20 -30 0 -58 5 -61 10 -12 20 7 30 61 30 47 0 54 -2 54 -20z"/>
<path d="M2471 321 c11 -39 28 -94 38 -123 18 -53 18 -53 62 -56 l45 -3 37
119 c20 65 37 121 37 125 0 4 -15 7 -34 7 l-33 0 -23 -85 c-13 -47 -24 -85
-26 -85 -2 0 -15 38 -29 85 -26 85 -26 85 -60 85 l-33 0 19 -69z"/>
<path d="M2778 374 c-37 -19 -58 -63 -58 -118 0 -94 29 -118 153 -124 l87 -4
0 31 0 31 -78 0 c-72 0 -102 9 -102 32 0 4 44 9 98 10 l97 3 -2 55 c-2 75 -30
100 -111 100 -31 -1 -69 -7 -84 -16z m130 -46 c28 -28 13 -38 -58 -38 -72 0
-87 10 -52 36 21 17 94 18 110 2z"/>
<path d="M3040 370 c-24 -24 -26 -77 -4 -108 13 -19 24 -22 78 -22 63 0 79 -9
69 -37 -3 -9 -29 -13 -84 -13 l-79 0 0 -30 0 -30 94 0 c87 0 96 2 110 22 9 12
16 41 16 64 0 58 -21 74 -99 74 -59 0 -62 1 -59 23 3 20 9 22 76 25 69 3 72 4
72 27 0 25 -1 25 -85 25 -72 0 -88 -3 -105 -20z"/>
<path d="M3723 370 c-17 -10 -37 -28 -42 -39 -17 -30 -14 -133 4 -158 20 -28
73 -43 153 -43 l62 0 0 30 0 30 -74 0 c-58 0 -79 4 -92 18 -17 16 -13 17 84
20 l102 3 0 49 c0 26 -3 56 -6 65 -18 45 -134 60 -191 25z m128 -40 c10 -6 19
-17 19 -25 0 -12 -16 -15 -75 -15 -71 0 -75 1 -65 19 5 11 15 22 22 24 23 9
79 7 99 -3z"/>
<path d="M4011 376 c-34 -19 -50 -54 -51 -108 0 -95 39 -131 148 -136 l72 -4
0 31 0 31 -64 0 c-79 0 -96 13 -96 75 0 58 24 75 102 75 55 0 58 1 58 25 0 24
-2 25 -72 25 -41 -1 -83 -6 -97 -14z"/>
<path d="M4497 383 c-4 -3 -7 -62 -7 -130 l0 -124 28 3 27 3 3 103 3 102 47 0
c27 0 53 -5 60 -12 8 -8 12 -46 12 -105 l0 -93 31 0 31 0 -4 104 c-3 94 -5
107 -27 130 -23 24 -31 26 -111 26 -48 0 -90 -3 -93 -7z"/>
<path d="M4790 370 c-17 -17 -20 -33 -20 -108 0 -76 3 -91 21 -111 20 -21 28
-23 110 -19 113 4 118 10 119 130 0 119 -9 128 -125 128 -72 0 -88 -3 -105
-20z m171 -51 c5 -8 9 -35 9 -61 0 -37 -4 -50 -19 -58 -27 -14 -104 -13 -119
2 -19 19 -15 115 6 128 23 14 112 6 123 -11z"/>
<path d="M5190 370 c-17 -17 -20 -33 -20 -107 0 -49 4 -93 8 -99 15 -23 53
-34 114 -34 116 0 128 13 128 140 0 110 -10 120 -125 120 -72 0 -88 -3 -105
-20z m148 -36 c20 -6 22 -12 22 -69 0 -71 -4 -75 -74 -75 -55 0 -66 13 -66 77
0 39 4 55 18 62 19 12 66 14 100 5z"/>
<path d="M5494 367 c-22 -19 -28 -34 -32 -79 -8 -104 39 -158 138 -158 48 0
51 -2 48 -22 -3 -21 -9 -23 -80 -26 -75 -3 -78 -4 -78 -27 0 -25 1 -25 89 -25
85 0 91 1 111 27 19 24 20 37 18 177 l-3 151 -92 3 c-84 2 -93 1 -119 -21z
m154 -104 l3 -73 -44 0 c-62 0 -82 18 -82 75 0 58 22 77 80 73 l40 -3 3 -72z"/>
<path d="M5750 260 l0 -130 30 0 30 0 0 130 0 130 -30 0 -30 0 0 -130z"/>
<path d="M5894 371 c-61 -37 -72 -157 -20 -209 23 -23 35 -26 116 -30 l90 -4
0 31 0 31 -78 0 c-72 0 -102 9 -102 32 0 4 46 8 101 8 l101 0 -4 57 c-7 77
-36 103 -116 103 -39 0 -67 -6 -88 -19z m138 -48 c30 -27 21 -33 -57 -33 -56
0 -75 3 -75 13 0 34 100 49 132 20z"/>
<path d="M6160 370 c-23 -23 -26 -63 -7 -100 11 -22 20 -26 82 -30 62 -4 70
-7 70 -25 0 -18 -8 -20 -82 -23 l-83 -3 0 -29 0 -30 94 0 c113 0 126 8 126 78
0 68 -9 76 -87 82 -60 4 -68 7 -68 25 0 18 8 20 73 23 69 3 72 4 72 27 0 25
-1 25 -85 25 -72 0 -88 -3 -105 -20z"/>
</g>
</svg>
